<?xml version="1.0" standalone="no"?>
<!DOCTYPE svg PUBLIC "-//W3C//DTD SVG 20010904//EN"
 "http://www.w3.org/TR/2001/REC-SVG-20010904/DTD/svg10.dtd">
<svg version="1.0" xmlns="http://www.w3.org/2000/svg"
 width="200.000000pt" height="200.000000pt" viewBox="0 0 200.000000 200.000000"
 preserveAspectRatio="xMidYMid meet">
<metadata>
Created by potrace 1.11, written by Peter Selinger 2001-2013
</metadata>
<g transform="translate(0.000000,200.000000) scale(0.100000,-0.100000)"
fill="#000000" stroke="none">
<path d="M625 1824 c-198 -96 -417 -202 -487 -236 l-128 -61 0 -74 0 -73 281
0 281 0 -7 -22 c-3 -13 -9 -57 -12 -98 -4 -61 -1 -86 16 -130 19 -50 89 -140
109 -140 4 0 6 19 3 43 -2 28 -12 49 -27 64 -24 22 -34 86 -16 97 19 11 84
-18 93 -42 11 -29 43 -26 47 6 4 29 30 29 34 0 2 -15 10 -23 23 -23 13 0 21 8
23 23 2 12 10 22 19 22 9 0 13 -6 9 -15 -8 -22 23 -49 40 -34 8 6 14 18 14 25
0 8 9 14 20 14 11 0 20 -6 20 -14 0 -38 49 -38 54 -1 4 29 23 29 30 0 9 -35
46 -35 46 0 0 33 26 33 34 0 8 -32 43 -34 48 -3 2 14 15 25 42 34 21 8 42 11
47 8 5 -3 9 -23 9 -44 0 -29 -6 -43 -25 -58 -18 -15 -25 -29 -25 -56 0 -66
-23 -100 -102 -154 -142 -96 -183 -103 -274 -51 -29 16 -56 34 -59 40 -12 18
-25 8 -25 -20 0 -19 21 -57 69 -121 46 -62 74 -111 86 -151 10 -32 21 -59 25
-59 3 0 14 26 24 58 16 49 138 242 154 242 3 0 21 -12 39 -26 41 -31 41 -32
-23 -184 -35 -82 -49 -133 -64 -232 -11 -70 -20 -131 -20 -137 0 -7 -38 -11
-108 -11 l-108 0 -18 123 c-14 100 -27 148 -74 267 -31 80 -57 146 -57 147 -4
8 -134 -43 -152 -60 -13 -11 -25 -18 -28 -15 -4 3 -55 553 -55 590 0 5 -46 7
-102 6 l-103 -3 -37 -430 c-20 -236 -37 -436 -37 -442 -1 -10 26 -13 104 -13
l105 0 0 -45 0 -45 -170 0 -170 0 0 -85 0 -85 930 0 930 0 0 85 0 85 -197 2
-198 3 -3 43 -3 42 137 0 136 0 -6 43 c-3 23 -19 213 -36 422 -17 209 -33 390
-36 403 -4 21 -9 22 -103 22 l-99 0 -6 -52 c-3 -29 -15 -168 -27 -308 -12
-140 -23 -257 -25 -259 -6 -6 -84 31 -84 40 0 5 -11 11 -24 15 -20 5 -25 14
-31 52 -4 25 -20 83 -37 129 l-30 83 36 38 c59 60 81 115 81 202 0 41 -4 92
-8 113 l-8 37 311 0 310 0 0 73 0 73 -480 232 c-265 128 -486 235 -493 237 -7
2 -174 -74 -372 -171z m300 -471 c53 -36 147 -64 232 -70 58 -4 83 -10 83 -19
0 -26 -69 -35 -280 -35 -220 0 -280 8 -280 39 0 30 79 118 134 149 18 10 25 8
51 -16 17 -15 44 -37 60 -48z m178 -557 c-57 -68 -108 -148 -124 -194 -14 -42
-17 -45 -26 -27 -6 11 -13 31 -16 45 -4 14 -15 35 -27 47 l-20 22 51 22 c54
24 158 99 173 127 7 11 11 13 14 4 2 -7 -9 -27 -25 -46z"/>
<path d="M867 984 c-30 -30 20 -64 93 -64 60 0 102 19 98 44 -2 16 -9 20 -28
19 -71 -7 -98 -7 -125 0 -17 4 -34 5 -38 1z"/>
<path d="M0 45 l0 -45 1000 0 1000 0 0 45 0 45 -1000 0 -1000 0 0 -45z"/>
</g>
</svg>
